<svg xmlns="http://www.w3.org/2000/svg" viewBox="241 249.1 602.279 306.794" xml:space="preserve" width="602.279" height="306.794">
    <path style="fill:#231f20;stroke-width:1.23058546" d="M296.589 301.586h492.234v199.237H296.589Z"/>
    <path style="fill:#fff;stroke-width:1.23058546" d="m749.913 329.445-46.746 68.31 50.898 74.74h-47.214l-27.927-39.982-28.329 39.982h-46.41c1.071-2.612 50.897-74.74 50.897-74.74l-21.162-29.467h-90.143c-4.152.335-9.376-1.071-11.385 3.818-.736 1.54-1.071 3.817-.335 5.223a7.44 7.44 0 0 0 4.153 4.153l3.08.334h36.298c16.609.335 32.08 10.917 39.245 25.985 6.43 12.457 5.693 29.802-1.54 41.924-9.041 15.068-25.315 23.774-42.594 23.038H470.244l-15.47-55.452-15.538 55.519h-36.633l-14.733-55.854-15.872 55.519h-40.719s37.37-134.009 39.647-142.648h34.289l15.872 59.671 16.274-59.67h33.62l28.797 104.206h66.77c4.486-.335 10.915 1.071 12.79-4.487.737-2.612 0-5.224-1.54-6.765-1.54-1.54-3.817-1.875-6.027-1.875h-35.83c-16.943-.335-33.953-11.72-40.383-27.926-6.764-16.274-3.08-36.232 9.845-48.688 8.64-8.64 19.22-13.193 31.677-13.997h118.203l23.775 34.289 24.578-34.289z"/>
</svg>
