<svg xmlns="http://www.w3.org/2000/svg" viewBox="241 249.1 602.279 306.794" xml:space="preserve" width="602.279" height="306.794">
    <defs>
        <clipPath id="a">
            <path d="M0 236.721h875.059V0H0Z"/>
        </clipPath>
    </defs>
    <path style="fill:#221f1f;stroke-width:1.38309801" d="M763.224 371.714v42.024H724.83v19h38.395v42.025h18.205v-42.025h38.395v-19h-38.395v-42.024Zm-496.64 103.048h369.544V325.1H266.585Z"/>
    <g clip-path="url(#a)" transform="matrix(.63223 0 0 -.63223 266.585 474.762)">
        <path style="fill:#fff" d="m538.262 203.399-55.568-81.16 60.44-88.672h-55.813l-33.213 47.47-33.48-47.584h-55.446c1.506 3.126 60.695 88.786 60.695 88.786l-25.228 35.099-107.02-.122c-4.99-.394-11.11 1.12-13.614-4.51-.876-1.864-1.252-4.613-.246-6.495.867-2.12 2.872-4.115 5.113-4.737l3.371-.254h42.837c19.848-.5 38.216-12.852 46.822-30.713 7.626-14.99 6.501-35.467-1.996-49.711-10.734-18.097-29.846-28.218-50.569-27.474H206.21s-18.237 65.82-18.36 65.935L169.49 33.322l-43.452-.008-17.484 66.197-19.112-66.058H41.368s44.204 159.09 47.076 169.587h40.597l19.104-70.934 19.48 70.934 39.836.009 34.092-123.526h79.425c5.48.262 13.106-1.234 15.356 5.498.876 3.012.132 6.129-1.996 8.248-2.005 1.75-4.5 2.24-7.118 2.24l-42.705.009c-20.233.622-40.335 13.86-47.829 33.33-8.117 19.49-3.37 42.849 11.486 57.934 10.49 10.515 22.974 15.759 37.595 16.38l140.11.123 28.231-40.702 29.207 40.825z"/>
        <path style="fill:#221f1f" d="M653.678 33.258c2.856 20.12 54.579 32.427 54.579 76.371 0 41.86-29.125 52.521-54.58 52.521-25.444 0-52.562-19.28-52.562-50.9V99.346h38.197v8.62c0 10.875 5.327 17.667 14.778 17.667 9.45 0 13.936-5.558 13.936-16.836 0-25.454-43.104-35.719-61.148-67.752C599.142 27.375 598.653 0 598.653 0h107.16v33.258z"/>
    </g>
</svg>
